<svg fill="none" viewBox="0 0 430 122"><g clip-path="url(#logo_svg__clip0)" fill="currentColor"><path fill-rule="evenodd" clip-rule="evenodd" d="M72.102 14.893L60.478 1.11 48.853 14.893 32.155 8.09l-3.887 17.607-17.947 1.737 4.74 17.396-15.084 9.878L12.26 67.91 3.494 83.665l17.01 5.982-.44 18.025 17.84-2.609 7.989 16.165 14.585-10.601 14.585 10.601 7.988-16.165 17.841 2.609-.439-18.025 17.009-5.982-8.765-15.756 12.281-13.2-15.084-9.879 4.74-17.396-17.946-1.737L88.8 8.09l-16.698 6.803zM65.417 34.3l2.153-8.035 6.589 1.765-2.153 8.035c2.367.807 4.284 2.01 6.093 3.614 1.927 1.808 3.329 3.648 4.344 5.642l-7.111 5.329c-2.16-4.799-5.748-6.191-7.274-6.6-1.688-.452-3.922-.792-5.98.464-1.427.824-2.195 2.082-2.54 3.368-.43 1.607-.089 2.904 1.078 4.336.77.981 1.883 1.969 5.706 5.06.444.363.903.727 1.369 1.097 2.495 1.983 5.185 4.12 6.89 6.972 2.16 3.507 2.46 7.204 1.427 11.061-1.378 5.143-4.688 8.82-8.029 10.68-3.056 1.765-6.781 2.49-10.248 2.25l-2.411 8.999-6.589-1.766 2.368-8.838c-4.37-1.688-7.373-4.301-9.214-6.43-1.584-1.803-3.177-4.21-4.293-7.438l7.684-4.572c.635 1.806 1.843 4.37 3.288 6.048 1.68 2.087 3.816 3.434 6.709 4.21 2.089.559 4.446.76 6.666-.454 1.732-1 2.87-2.675 3.344-4.443.538-2.009-.039-3.714-.664-4.915-.626-1.2-3.95-3.9-4.946-4.683-2.152-1.61-6.691-5.238-9.028-9.05-1.926-3.1-2.442-5.995-1.301-10.253.947-3.535 2.896-6.63 6.242-8.834 2.183-1.396 5.496-2.833 9.83-2.62z"></path><path d="M141.466 96.54h13.089l6.743-40.859 16.956 40.86h4.363l17.75-40.86 5.949 40.86h13.09L208.3 30.23h-9.321l-18.345 42.152-17.551-42.152h-9.321l-12.296 66.31zM224.375 53.494v43.047h12.098V53.494h-12.098zm-1.19-18.193c0 3.977 3.273 7.258 7.239 7.258 3.966 0 7.239-3.281 7.239-7.258 0-3.976-3.273-7.257-7.239-7.257-3.966 0-7.239 3.28-7.239 7.257zM243.045 24.068V96.54h12.098V24.068h-12.098zM261.715 24.068V96.54h12.098V24.068h-12.098zM280.385 53.494v43.047h12.098V53.494h-12.098zm-1.19-18.193c0 3.977 3.273 7.258 7.239 7.258 3.966 0 7.239-3.281 7.239-7.258 0-3.976-3.273-7.257-7.239-7.257-3.966 0-7.239 3.28-7.239 7.257zM321.465 52.102c-8.131 0-13.684 2.685-17.353 6.065-4.264 3.877-7.238 9.842-7.238 16.9 0 6.96 2.974 12.924 7.238 16.801 3.669 3.38 9.222 6.064 17.353 6.064 8.132 0 13.684-2.684 17.353-6.064 4.264-3.877 7.239-9.842 7.239-16.8 0-7.06-2.975-13.024-7.239-16.901-3.669-3.38-9.221-6.065-17.353-6.065zm0 35.094c-7.04 0-12.097-5.568-12.097-12.129 0-6.76 5.156-12.228 12.097-12.228 6.942 0 12.098 5.468 12.098 12.228 0 6.561-5.057 12.129-12.098 12.129zM350.456 96.54h12.097V74.57c0-2.485.099-5.567 1.884-8.35 1.785-2.685 4.264-3.779 7.437-3.779 1.19 0 3.768.2 5.652 2.188 2.182 2.286 2.281 6.064 2.281 8.45V96.54h12.098V69.5c0-4.175-.397-8.45-3.372-12.129-3.371-4.175-8.924-5.269-12.692-5.269-6.941 0-11.007 3.778-13.288 6.96v-5.568h-12.097v43.047zM427.818 56.675c-5.453-4.175-10.511-4.573-13.684-4.573-3.47 0-7.833.398-11.205 3.082-2.479 2.088-4.462 5.568-4.462 9.743 0 3.48 1.289 6.163 3.272 8.251 2.579 2.684 6.148 4.076 9.222 5.17l2.777.994c1.586.596 3.768 1.69 3.768 4.374 0 2.983-2.578 4.673-5.95 4.673-3.57 0-7.139-2.188-9.519-4.971l-6.346 7.356c2.677 2.884 7.734 7.158 16.658 7.158 5.256 0 9.421-1.391 12.891-4.573 3.471-3.18 4.76-7.058 4.76-10.935 0-2.784-.892-5.369-2.182-7.158-2.479-3.38-7.536-5.07-10.907-6.164l-2.876-.895c-3.371-1.093-3.867-2.783-3.867-3.877 0-2.087 1.785-3.48 4.66-3.48 1.29 0 4.165.2 7.041 2.884l5.949-7.059z"></path></g><defs><clipPath id="logo_svg__clip0"><path fill="#fff" transform="translate(0 .772)" d="M0 0h430v120.456H0z"></path></clipPath></defs></svg>
